<?xml version="1.0" encoding="UTF-8"?>
<svg width="20px" height="16px" viewBox="0 0 20 16" version="1.1" xmlns="http://www.w3.org/2000/svg" xmlns:xlink="http://www.w3.org/1999/xlink">
    <!-- Generator: Sketch 55 (78076) - https://sketchapp.com -->
    <title>cart</title>
    <desc>Created with Sketch.</desc>
    <g id="Page-2-Copy" stroke="none" stroke-width="1" fill="none" fill-rule="evenodd">
        <g id="Menu-Initial" transform="translate(-370.000000, -272.000000)" fill="#DD4B4B" fill-rule="nonzero">
            <g id="Menu-List" transform="translate(16.000000, 229.000000)">
                <g id="Menu-Item">
                    <g id="Cart" transform="translate(345.000000, 36.000000)">
                        <path d="M28.8532677,10.3623435 C28.715238,10.152197 28.4621836,10.0354489 28.2091292,10.0354489 L13.4859643,10.0354489 C13.4629594,10.0354489 13.4629594,10.0354489 13.4399544,10.0354489 L12.7037962,7.91063468 C12.5427616,7.37359372 12.0366528,7 11.4845341,7 L9.55211868,7 C9.2530544,7 9,7.25684568 9,7.56039058 C9,7.86393547 9.2530544,8.12078115 9.55211868,8.12078115 L11.4845341,8.12078115 C11.5765539,8.12078115 11.6455687,8.16748037 11.6685736,8.26087879 L15.5103995,19.1651454 C15.5794143,19.4219911 15.7404489,19.6321376 15.9474935,19.7955848 C15.7404489,20.0991297 15.6254242,20.4493738 15.6254242,20.8463171 C15.6254242,21.8736999 16.4536022,22.7142857 17.4658198,22.7142857 C18.4780374,22.7142857 19.3062155,21.8736999 19.3062155,20.8463171 C19.3062155,20.5661218 19.2372006,20.3092762 19.1451808,20.0757801 L23.0560215,20.0757801 C22.9409968,20.3092762 22.8949869,20.5661218 22.8949869,20.8463171 C22.8949869,21.8736999 23.7231649,22.7142857 24.7353825,22.7142857 C25.7476001,22.7142857 26.5757781,21.8736999 26.5757781,20.8463171 C26.5757781,20.2392273 26.2997188,19.725536 25.8626248,19.3752919 C25.7706051,19.2818934 25.6095704,19.188495 25.4485358,19.1184462 C25.4485358,19.1184462 25.4485358,19.1184462 25.4485358,19.1184462 C25.2414913,19.0250478 25.0114419,18.9783485 24.8964171,18.9783485 L24.7353825,18.9783485 C24.7353825,18.9783485 24.7353825,18.9783485 24.7353825,18.9783485 C24.7353825,18.9783485 24.7353825,18.9783485 24.7353825,18.9783485 L17.5348347,18.9783485 C17.5118297,18.9783485 17.4888248,18.9783485 17.4658198,18.9783485 C17.4428149,18.9783485 17.4198099,18.9783485 17.396805,18.9783485 L16.7296616,18.9783485 C16.6376418,18.9783485 16.568627,18.9316493 16.545622,18.8382509 L15.9244885,17.11038 L26.3457287,17.11038 C26.6908029,17.11038 26.9898671,16.9002335 27.0818869,16.573339 L28.9682924,11.0161325 C29.0373073,10.805986 28.9912974,10.5491403 28.8532677,10.3623435 Z M17.4658198,21.5234557 C17.0977407,21.5234557 16.7986764,21.2199108 16.7986764,20.8463171 C16.7986764,20.4727234 17.0977407,20.1691785 17.4658198,20.1691785 C17.833899,20.1691785 18.1329632,20.4727234 18.1329632,20.8463171 C18.1329632,21.2199108 17.833899,21.5234557 17.4658198,21.5234557 Z M24.7583875,21.5234557 C24.3903083,21.5234557 24.0912441,21.2199108 24.0912441,20.8463171 C24.0912441,20.4727234 24.3903083,20.1691785 24.7583875,20.1691785 C25.1264666,20.1691785 25.4255309,20.4727234 25.4255309,20.8463171 C25.4025259,21.2199108 25.1034616,21.5234557 24.7583875,21.5234557 Z M26.207699,16.1296965 L15.5794143,16.1296965 L13.7850286,11.0161325 L27.9560748,11.0161325 L26.207699,16.1296965 Z" id="cart"></path>
                    </g>
                </g>
            </g>
        </g>
    </g>
</svg>