<?xml version="1.0" encoding="UTF-8"?>
<svg width="302px" height="456px" viewBox="0 0 302 456" version="1.1" xmlns="http://www.w3.org/2000/svg" xmlns:xlink="http://www.w3.org/1999/xlink">
    <!-- Generator: Sketch 55 (78076) - https://sketchapp.com -->
    <title>Group 2</title>
    <desc>Created with Sketch.</desc>
    <g id="Page-2-Copy" stroke="none" stroke-width="1" fill="none" fill-rule="evenodd">
        <g id="THANK-YOU" transform="translate(-81.000000, -44.000000)" fill-rule="nonzero">
            <g id="Group-2" transform="translate(81.000000, 44.000000)">
                <g id="noun_thanks_2349847" opacity="0.0714750744" fill="#000000">
                    <path d="M170.676498,117.795278 C188.513598,118.720379 196,125.927285 196,125.927285 C196,125.927285 183.667839,112.406257 164.943986,113.020299 C144.627114,113.690896 138.274658,119.415215 138.274658,119.415215 C138.290353,119.867667 138,126 138,126 C138,126 152.839399,116.862096 170.676498,117.795278 Z" id="Path"></path>
                    <path d="M69.8161401,117.629253 C52.2933379,118.333111 45,125.288188 45,125.288188 C45,125.288188 56.9950549,112.225051 75.4026099,113.036277 C95.3760989,113.91113 101.667239,119.573811 101.667239,119.573811 C101.659409,120.015214 102,126 102,126 C102,126 87.3389423,116.913464 69.8161401,117.629253 Z" id="Path"></path>
                    <path d="M104,203.003819 C104,203.003819 104.589785,203.217661 105.588179,203.645346 C106.081593,203.866826 106.690652,204.137947 107.380662,204.363246 C108.082236,204.588544 108.795374,204.909308 109.65114,205.153699 C110.518471,205.375179 111.401221,205.711217 112.380341,205.928878 C113.363315,206.142721 114.369419,206.417661 115.441054,206.574224 C116.493415,206.80716 117.603598,206.902625 118.721491,207.013365 C119.831674,207.200477 120.972695,207.127924 122.102152,207.181384 C123.227755,207.154654 124.364921,207.147017 125.46354,207.024821 C126.685512,206.872076 127.722454,206.776611 128.813363,206.600955 C130.995181,206.276372 132.991969,205.852506 134.707356,205.443914 C135.543848,205.191885 136.314809,204.95895 136.997109,204.752745 C137.644716,204.458711 138.207517,204.202864 138.673948,203.99284 C139.51815,203.35895 140,203 140,203 C140,203 139.776421,203.530788 139.190491,204.557995 C138.808866,204.955131 138.342435,205.459189 137.748795,206.012888 C137.120463,206.44821 136.399615,207.009547 135.559268,207.46778 C133.886283,208.395704 131.820109,209.266348 129.541921,209.884964 C128.404754,210.175179 127.12496,210.534129 125.976229,210.679236 C124.704144,210.866348 123.401221,210.935084 122.102152,211 C120.806939,210.900716 119.500161,210.91599 118.251205,210.66778 C116.986829,210.522673 115.776421,210.186635 114.631545,209.827685 C113.459685,209.552745 112.411179,209.01432 111.405075,208.594272 C110.387408,208.193317 109.527787,207.582339 108.706714,207.120286 C107.881786,206.658234 107.203341,206.039618 106.594282,205.585203 C105.962094,205.134606 105.530357,204.649642 105.152586,204.260143 C104.404754,203.481146 104,203.003819 104,203.003819 Z" id="Path"></path>
                    <g id="Group" transform="translate(48.000000, 147.000000)">
                        <path d="M16.5277778,3.93466667 C10.8082305,7.65466667 0.684156379,9.83066667 0.684156379,9.83066667 C16.3257716,14.4466667 17.6209877,10.6626667 31.0246914,9.90666667 C44.4244342,9.15466667 51.2768004,14.8826667 51.2768004,14.8826667 C44.7492284,-0.981333333 24.4495885,-1.21733333 16.5277778,3.93466667 Z" id="Path"></path>
                        <path d="M108.975309,9.90666667 C122.379012,10.6626667 123.674228,14.4466667 139.315844,9.83066667 C139.315844,9.83066667 129.19177,7.65466667 123.472222,3.93466667 C115.550412,-1.22133333 94.2605453,-0.981333333 89.0321502,14.8826667 C89.0321502,14.8826667 95.5755658,9.15466667 108.975309,9.90666667 Z" id="Path"></path>
                    </g>
                    <path d="M117.967294,8.65581041e-06 C-6.11621826,-0.0394118284 0.0504041887,134.581542 0.0504041887,134.581542 C0.880526441,248.270218 86.8179444,257.928237 86.8179444,257.928237 C76.0619318,252.567051 67.8397685,244.32817 61.5545572,234.473049 C69.5790723,240.386121 78.6313578,245.234841 86.8179444,249.610515 C87.9643037,250.201822 89.0671804,250.793129 90.1384334,251.384436 C90.1384334,265.023924 89.7036074,273.341646 87.7271259,288.203169 C83.8927517,288.360851 74.5637587,289.10984 66.7764214,293.012468 L64.8789991,293.99798 L65.9858288,295.811322 C66.5787733,296.796834 76.144944,312.013141 91.5219705,322.696092 C90.7313778,331.565701 90.5732593,339.922844 92.0358557,344.535041 C92.9450372,347.491577 94.7278235,349.462601 97.3328262,350.408693 C98.5226681,350.842318 99.8271459,351 101.171153,351 C108.405076,351 116.983006,345.638814 117.180654,345.481132 C118.68278,344.929245 119.947728,342.485175 120.77785,335.704852 C122.038846,344.535041 123.544925,345.047507 124.331564,345.32345 C124.76639,345.599394 133.38385,351 140.661255,351 C141.96178,351 143.266258,350.842318 144.456099,350.408693 C147.061102,349.462601 148.839935,347.491577 149.7926,344.535041 C151.097077,340.356469 151.097077,333.06368 150.543663,325.100742 C168.173878,314.496632 176.392088,297.033357 176.510677,296.796834 L177.30127,295.141174 L175.680555,294.234503 C167.343756,289.582886 156.587743,287.375338 152.59525,286.66577 C151.448891,272.277293 151.409362,265.772913 151.409362,250.714288 C158.485165,246.969342 165.877206,242.160043 173.625014,236.16813 C176.075851,234.275946 179.198692,231.950138 182.242474,229.70317 C183.230715,228.954181 184.218955,228.244612 185.207196,227.495623 C178.447629,243.973385 168.604751,255.681269 154.80891,257.928237 C154.80891,257.928237 231.022038,260.017522 230.630695,151.098725 C230.626742,151.098725 243.473872,8.65581041e-06 117.967294,8.65581041e-06 Z M70.6107956,295.61422 C79.2322082,292.026956 89.3083111,292.145217 89.4269,292.145217 L91.1662038,292.145217 L91.4033816,290.450136 C93.498452,275.391511 94.0123372,266.955528 94.0953494,253.513143 C96.7833644,254.9717 99.5504385,256.154315 102.317513,257.100407 C99.7480867,272.080191 96.2299495,289.504045 96.1904199,289.779988 C96.0323014,290.7655 93.4233457,304.286726 91.9607494,318.044475 C81.1256775,309.963276 73.4964587,299.753371 70.6107956,295.61422 Z M115.872223,342.83996 C112.749382,344.810984 103.538978,349.502022 98.3605966,347.609838 C96.6568695,346.979111 95.4749336,345.678235 94.8385065,343.628369 C93.5775113,339.686321 93.6526176,332.432952 94.2850917,324.509435 C94.4036806,323.011456 94.5617991,321.513478 94.680388,319.976079 C96.1864669,305.548182 99.068177,290.607818 99.1077067,290.371295 C99.3488374,289.267522 102.665373,272.632077 105.19527,258.007078 C105.392918,256.666781 105.630096,255.365905 105.827744,254.10445 C106.974103,247.245286 107.843755,241.253372 107.922814,238.099733 C108.195569,229.506068 110.373652,222.489221 113.294891,220.675879 C113.812729,220.321095 114.366144,220.202833 114.915606,220.202833 C115.314855,220.202833 115.706199,220.281674 116.101495,220.399936 C116.892088,221.385448 117.488985,226.234167 117.880328,232.97507 C117.208325,232.738547 116.496791,232.580865 115.706199,232.699127 C112.029943,233.329855 108.07698,238.769881 108.07698,252.172846 C108.07698,252.842994 108.03745,253.710245 107.958391,254.656337 C107.879332,255.799531 107.760743,257.139827 107.563095,258.598385 C105.784261,273.65701 99.8152871,303.380055 99.6966982,303.734839 L102.621891,304.286726 C102.938128,302.867589 108.630395,274.405999 110.484334,259.189692 C110.642453,257.731134 110.800572,256.430258 110.883584,255.247644 C111.002173,254.065029 111.041702,253.000676 111.041702,252.172846 C111.041702,239.794814 114.401721,235.931607 116.220084,235.616243 C116.971147,235.497981 117.208325,236.010448 117.326914,236.325811 C117.564091,236.956539 117.72221,237.744949 117.840799,238.6122 C117.840799,239.282348 117.880328,239.991916 117.880328,240.662065 C117.68268,243.421499 117.72221,246.969342 117.998917,251.187334 C117.998917,251.66038 117.998917,252.133426 118.038447,252.567051 C117.959388,253.749665 117.880328,254.853439 117.801269,255.878372 C117.68268,257.258089 117.560138,258.440703 117.485032,259.347374 C117.208325,259.307954 116.971147,259.189692 116.69444,259.189692 C116.65491,259.189692 116.61538,259.189692 116.61538,259.189692 C115.899894,259.189692 115.152784,259.347374 114.437298,259.702159 C112.579405,260.529989 111.041702,262.461592 110.95869,265.102765 C110.444805,278.742252 108.982208,303.655998 108.982208,303.931942 L111.946931,304.089624 C111.946931,303.853101 113.409527,278.860514 113.923412,265.221026 C114.006425,263.171161 115.702246,262.067388 116.61538,262.146229 C118.192613,262.185649 118.350731,264.274935 118.350731,265.142185 L118.350731,267.546835 C118.271672,286.350406 118.50885,300.54178 118.908099,311.303572 C118.864616,318.714623 118.666968,324.509435 118.390261,328.963949 C118.275625,330.422507 118.192613,331.723383 118.074024,332.905998 C117.532468,339.528639 116.702345,342.169812 115.872223,342.83996 Z M146.942513,343.628369 C146.310039,345.678235 145.16368,346.979111 143.420423,347.609838 C138.281571,349.502022 129.031637,344.810984 125.715101,342.721698 C125.240746,342.366914 124.292035,340.592992 123.382853,333.06368 C123.264264,331.920486 123.106146,330.580189 122.983604,329.121631 C122.588308,324.824798 122.193011,319.187669 121.916304,311.776618 C121.995363,301.763815 121.876774,288.952158 121.481478,272.474395 C121.402419,268.80829 121.323359,266.206538 121.323359,265.181606 L121.323359,265.142185 C121.323359,263.289423 122.034893,262.067388 123.141722,262.067388 L123.181252,262.067388 C124.288082,262.067388 125.908797,263.250002 126.106445,266.009436 C126.936567,280.279651 129.664111,303.025271 129.703641,303.261794 L132.628834,302.907009 C132.628834,302.670486 129.901289,280.003708 129.031637,265.851754 C128.833989,262.382752 127.055156,260.254045 124.960085,259.465636 C124.327611,259.229113 123.69909,259.110851 123.066616,259.110851 C122.59226,259.110851 122.117905,259.268533 121.679126,259.465636 C121.56449,258.243601 121.441948,257.060986 121.323359,255.838951 C121.406372,248.4279 121.323359,242.041782 121.086182,236.798857 C121.165241,236.365232 121.28383,236.049868 121.441948,235.892186 C122.153482,235.773925 122.627837,235.734504 123.260311,236.20755 C124.643848,237.311324 126.62033,240.977429 128.003867,252.369949 C128.082926,253.118938 128.201515,253.986188 128.399163,254.9717 C128.557282,256.114895 128.798413,257.415771 129.071167,258.874328 C131.763135,273.302226 138.123453,299.989893 138.43969,301.33019 L141.325353,300.660042 C141.24234,300.305257 134.644845,272.671498 131.95683,258.20418 C131.680123,256.785043 131.442945,255.484167 131.241344,254.340973 C131.126708,253.473722 131.004166,252.685312 130.925107,252.015164 C129.699688,241.765838 127.845748,236.010448 125.039145,233.881741 C123.41843,232.620286 121.876774,232.856809 121.003169,232.93565 C120.96364,232.97507 120.92411,233.014491 120.888533,233.014491 C121.003169,226.746634 121.28383,222.213278 121.758185,221.267186 C122.825485,219.453844 123.576548,219.650947 123.813726,219.729788 C126.778448,220.478777 131.288779,230.255057 131.605016,238.454518 C131.719652,241.489895 132.707893,247.127024 134.012371,253.631404 C134.289078,254.853439 134.526256,256.114895 134.802964,257.415771 C137.965334,272.159032 142.392653,289.306942 142.66936,290.331875 C142.748419,290.607818 145.906837,307.282683 147.294327,322.420149 C147.452445,323.878707 147.571034,325.337265 147.650094,326.756402 C148.128402,333.773248 148.088873,340.041105 146.942513,343.628369 Z M172.083359,296.796834 C169.75111,301.054247 162.635777,312.643869 150.144413,320.764489 C148.721347,306.100068 145.756624,290.804921 145.558976,289.701147 C145.519446,289.425204 140.89448,271.567724 137.65305,256.54852 C140.858903,255.484167 144.139862,254.183291 147.456398,252.606471 C147.456398,267.270892 147.535458,273.814692 148.760876,288.518533 L148.875512,290.095352 L150.456697,290.331875 C150.579239,290.331875 162.675306,292.105797 172.083359,296.796834 Z M187.697563,220.675879 C185.562963,222.33154 182.756359,224.420825 179.874649,226.549531 C176.826914,228.796499 173.668497,231.122308 171.21766,233.053911 C158.805355,242.593668 147.460351,249.137469 136.86641,252.724733 C135.605415,246.496296 134.652751,241.174531 134.577645,238.336256 C134.300937,230.609841 129.992207,218.192389 124.576648,216.852092 C123.347276,216.536728 121.09804,216.536728 119.200618,219.808629 C119.161088,219.88747 119.121559,220.084572 119.082029,220.202833 C118.611627,218.901957 118.137271,218.113548 117.540374,217.877025 C115.484833,216.970354 113.468822,217.088615 111.729518,218.152968 C107.144081,221.030664 105.207129,230.294477 104.969951,237.981472 C104.851362,240.938008 104.060769,246.614558 102.993469,253.158358 C100.503103,252.291108 98.0522655,251.187334 95.640958,249.847038 C93.4668283,248.664423 91.1345801,247.442388 88.6837429,246.141512 C78.3665092,240.622644 66.6657384,234.394208 57.6925122,226.234167 L56.6805536,224.826856 C34.4253714,180.833596 43.5804339,116.132755 43.5804339,116.132755 C43.5804339,116.132755 63.5428976,91.9285778 148.887371,99.8126747 C148.887371,99.8126747 158.457495,91.1795886 161.303628,74.7018262 C161.303628,74.7018262 165.770476,87.8682679 164.624117,102.72979 C164.624117,102.72979 183.242573,104.582553 195.852526,115.107823 C198.923978,149.955531 198.172915,189.927902 187.697563,220.675879 Z" id="Shape"></path>
                </g>
                <g id="Stars" transform="translate(231.000000, 0.000000)" fill="#DD4B4B" opacity="0.23281715">
                    <path d="M58.5326571,33 C63.218951,39.0008658 65.0009896,39.2199134 71,34.5324675 C65.0001237,39.2199134 64.7827808,41 69.4673429,47 C64.7827808,40.9991342 62.9990104,40.7800866 57,45.4675325 C62.9998763,40.7800866 63.218951,39.0008658 58.5326571,33 Z" id="Path"></path>
                    <path d="M16.3990219,24 C11.4359353,32.727969 11.8919381,33.4885782 22,33.3777441 C11.8919381,33.4885782 11.453868,34.2593401 16.6056748,42.8773211 C11.4547219,34.258494 10.5640647,34.2678007 5.60353996,43 C10.5640647,34.2678007 10.1097698,33.5063455 0,33.6188716 C10.1097698,33.5063455 10.5444242,32.7372757 5.39517913,24.1176025 C10.5444242,32.7372757 11.4367892,32.727969 16.3990219,24 Z" id="Path"></path>
                    <path d="M48.6555154,34.0314136 C39.3247869,43.1928234 39.594194,44.328949 52,48.0340953 C39.594194,44.3280552 38.7737665,45.1352318 41.8436128,58 C38.7737665,45.1343379 37.6769569,44.8089644 28.3462284,53.9703742 C37.6769569,44.8089644 37.4084216,43.6728387 25,39.9739497 C37.4075497,43.6737326 38.2288491,42.866556 35.1598747,30 C38.2279773,42.8674499 39.3247869,43.1937173 48.6555154,34.0314136 Z" id="Path"></path>
                    <path d="M43,12.5441133 C54.5695319,14.2198289 56.7814713,12.5697846 58.4517113,1 C56.7814713,12.5688994 58.4260425,14.7757451 70,16.453231 C58.4260425,14.7757451 56.2185287,16.4275598 54.5438631,28 C56.2176436,16.428445 54.5695319,14.2198289 43,12.5441133 Z" id="Path"></path>
                    <path d="M3,53.6916391 C13.7122992,57.8138363 16.1883126,56.715279 20.3042828,46 C16.1883126,56.7144099 17.2859626,59.1844255 28,63.3048844 C17.2859626,59.1844255 14.8082111,60.2864592 10.693979,71 C14.8090802,60.2873284 13.7122992,57.8138363 3,53.6916391 Z" id="Path"></path>
                    <path d="M36,20.0520688 C38.5723582,20.8656439 39.1366594,20.5718271 39.9473195,18 C39.1366594,20.5708973 39.4285714,21.1352859 42,21.948861 C39.4285714,21.1352859 38.8642702,21.4263133 38.0526805,24 C38.8642702,21.4272431 38.5714286,20.8656439 36,20.0520688 Z" id="Path"></path>
                    <path d="M61,62.0517509 C63.5710302,62.8642702 64.135244,62.5723582 64.9476375,60 C64.135244,62.5723582 64.4280403,63.1357298 67,63.9482491 C64.4280403,63.1357298 63.8638265,63.4267121 63.0523625,66 C63.8638265,63.4267121 63.5710302,62.8642702 61,62.0517509 Z" id="Path"></path>
                    <path d="M25,72.0517509 C27.5710302,72.8642702 28.135244,72.5723582 28.9476375,70 C28.135244,72.5723582 28.4280403,73.1357298 31,73.9482491 C28.4280403,73.1357298 27.8638265,73.4267121 27.0523625,76 C27.8638265,73.4267121 27.5710302,72.8642702 25,72.0517509 Z" id="Path"></path>
                    <path d="M5,11.0517509 C7.57103021,11.8642702 8.135244,11.5723582 8.94763749,9 C8.135244,11.5723582 8.42804028,12.1357298 11,12.9482491 C8.42804028,12.1357298 7.86382649,12.4267121 7.05236251,15 C7.86382649,12.4276418 7.5701007,11.8642702 5,11.0517509 Z" id="Path"></path>
                    <path d="M21.0801474,0 C25.7250921,4.71518625 27.2857143,4.7277937 32,0.0828489562 C27.2857143,4.72869423 27.2749079,6.28931641 31.9180516,11 C27.2749079,6.29021695 25.7115841,6.2749079 21,10.9225542 C25.7124847,6.2749079 25.7250921,4.71518625 21.0801474,0 Z" id="Path"></path>
                    <path d="M40.0801474,62 C44.7250921,66.7151862 46.2857143,66.7277937 51,62.082849 C46.2857143,66.7277937 46.2749079,68.2902169 50.9180516,73 C46.2749079,68.2902169 44.7115841,68.2740074 40,72.9216537 C44.7115841,68.2731068 44.7250921,66.7151862 40.0801474,62 Z" id="Path"></path>
                </g>
                <g id="Stars" transform="translate(83.000000, 385.000000) scale(1, -1) translate(-83.000000, -385.000000) translate(17.000000, 314.000000)" fill="#DD4B4B" opacity="0.23281715">
                    <path d="M107.955839,62 C116.993691,73.5730983 120.43048,73.9955473 132,64.9554731 C120.42881,73.9955473 120.009649,77.4285714 129.044161,89 C120.009649,77.4269017 116.56952,77.0044527 105,86.0445269 C116.57119,77.0044527 116.993691,73.5730983 107.955839,62 Z" id="Path"></path>
                    <path d="M30.5618135,45 C21.3124248,61.0778376 22.1622482,62.4789598 41,62.2747918 C22.1622482,62.4789598 21.3458448,63.8987843 30.9469394,79.7740126 C21.3474362,63.8972258 19.6875752,63.9143697 10.4429608,80 C19.6875752,63.9143697 18.8409347,62.511689 0,62.718974 C18.8409347,62.511689 19.6509723,61.0949815 10.054652,45.2166362 C19.6509723,61.0949815 21.3140162,61.0778376 30.5618135,45 Z" id="Path"></path>
                    <path d="M91.6826401,63.486911 C74.0579308,80.5009577 74.5668109,82.6109054 98,89.4918912 C74.5668109,82.6092453 73.0171144,84.1082876 78.815713,108 C73.0171144,84.1066275 70.945363,83.5023624 53.3206536,100.516409 C70.945363,83.5023624 70.4381297,81.3924148 47,74.5230494 C70.4364828,81.3940748 71.9878261,79.8950326 66.1908745,56 C71.9861793,79.8966926 74.0579308,80.5026178 91.6826401,63.486911 Z" id="Path"></path>
                    <path d="M80,22.8055474 C101.85356,25.9707878 106.031668,22.8540376 109.186566,1 C106.031668,22.8523655 109.13808,27.0208518 131,30.1894364 C109.13808,27.0208518 104.968332,30.1409462 101.805075,52 C104.96666,30.1426183 101.85356,25.9707878 80,22.8055474 Z" id="Path"></path>
                    <path d="M6,100.152616 C25.7106306,107.737459 30.2664952,105.716113 37.8398804,86 C30.2664952,105.714514 32.2861712,110.259343 52,117.840987 C32.2861712,110.259343 27.7271084,112.287085 20.1569214,132 C27.7287075,112.288684 25.7106306,107.737459 6,100.152616 Z" id="Path"></path>
                    <path d="M67,37.7621261 C71.7159901,39.2536805 72.7505423,38.7150163 74.2367524,34 C72.7505423,38.7133116 73.2857143,39.7480242 78,41.2395785 C73.2857143,39.7480242 72.2511621,40.2815745 70.7632476,45 C72.2511621,40.2832791 71.7142857,39.2536805 67,37.7621261 Z" id="Path"></path>
                    <path d="M114,116.761543 C118.713555,118.251162 119.747947,117.71599 121.237335,113 C119.747947,117.71599 120.284741,118.748838 125,120.238457 C120.284741,118.748838 119.250349,119.282306 117.762665,124 C119.250349,119.282306 118.713555,118.251162 114,116.761543 Z" id="Path"></path>
                    <path d="M47,134.761543 C51.7135554,136.251162 52.7479473,135.71599 54.2373354,131 C52.7479473,135.71599 53.2847405,136.748838 58,138.238457 C53.2847405,136.748838 52.2503486,137.282306 50.7626646,142 C52.2503486,137.282306 51.7135554,136.251162 47,134.761543 Z" id="Path"></path>
                    <path d="M8,20.7615432 C12.7135554,22.2511621 13.7479473,21.7159901 15.2373354,17 C13.7479473,21.7159901 14.2847405,22.7488379 19,24.2384568 C14.2847405,22.7488379 13.2503486,23.2823055 11.7626646,28 C13.2503486,23.2840099 12.7118513,22.2511621 8,20.7615432 Z" id="Path"></path>
                    <path d="M39.1384363,0 C47.1615227,8.14441261 49.8571429,8.16618911 58,0.143102743 C49.8571429,8.16774458 49.8384773,10.8633647 57.8584527,19 C49.8384773,10.8649202 47.1381907,10.8384773 39,18.86623 C47.1397462,10.8384773 47.1615227,8.14441261 39.1384363,0 Z" id="Path"></path>
                    <path d="M75.1384363,117 C83.1615227,125.144413 85.8571429,125.166189 94,117.143103 C85.8571429,125.166189 85.8384773,127.86492 93.8584527,136 C85.8384773,127.86492 83.1381907,127.836922 75,135.864675 C83.1381907,127.835366 83.1615227,125.144413 75.1384363,117 Z" id="Path"></path>
                </g>
            </g>
        </g>
    </g>
</svg>