<?xml version="1.0" encoding="UTF-8"?>
<svg width="520px" height="524px" viewBox="0 0 520 524" version="1.1" xmlns="http://www.w3.org/2000/svg" xmlns:xlink="http://www.w3.org/1999/xlink">
    <!-- Generator: Sketch 55 (78076) - https://sketchapp.com -->
    <title>Flavy Icon</title>
    <desc>Created with Sketch.</desc>
    <g id="Page-1" stroke="none" stroke-width="1" fill="none" fill-rule="evenodd">
        <g id="Flavy-Icon" fill="#DD4B4B">
            <path d="M302.907801,313 C306.808511,313 310,316.191489 310,320.092199 L310,330.907801 C310,334.808511 306.808511,338 302.907801,338 L292.092199,338 C288.191489,338 285,334.808511 285,330.907801 L285,320.092199 C285,316.191489 288.191489,313 292.092199,313 L302.907801,313 Z M328.907801,287 C332.808511,287 336,290.191489 336,294.092199 L336,304.907801 C336,308.808511 332.808511,312 328.907801,312 L318.092199,312 C314.191489,312 311,308.808511 311,304.907801 L311,294.092199 C311,290.191489 314.191489,287 318.092199,287 L328.907801,287 Z M328.765957,235.6 C332.744681,235.6 336,238.868085 336,242.862411 L336,253.937589 C336,257.931915 332.744681,261.2 328.765957,261.2 L317.734043,261.2 C313.755319,261.2 310.5,264.468085 310.5,268.462411 L310.5,279.537589 C310.5,283.531915 307.244681,286.8 303.265957,286.8 L292.234043,286.8 C288.255319,286.8 285,283.531915 285,279.537589 L285,268.462411 C285,264.468085 281.744681,261.2 277.765957,261.2 L266.734043,261.2 C262.755319,261.2 259.5,264.468085 259.5,268.462411 L259.5,279.537589 C259.5,283.531915 262.755319,286.8 266.734043,286.8 L277.765957,286.8 C281.744681,286.8 285,290.068085 285,294.062411 L285,305.137589 C285,309.131915 281.744681,312.4 277.765957,312.4 L266.734043,312.4 C262.755319,312.4 259.5,315.668085 259.5,319.662411 L259.5,330.737589 C259.5,334.731915 256.244681,338 252.265957,338 L234,338 L208.5,338 L190.234043,338 C186.255319,338 183,334.731915 183,330.737589 L183,312.4 L183,286.8 L183,268.462411 C183,264.468085 186.255319,261.2 190.234043,261.2 L208.5,261.2 L226.765957,261.2 C230.744681,261.2 234,257.931915 234,253.937589 L234,235.6 L234,217.262411 C234,213.268085 237.255319,210 241.234043,210 L252.265957,210 C256.244681,210 259.5,213.268085 259.5,217.262411 L259.5,228.337589 C259.5,232.331915 262.755319,235.6 266.734043,235.6 L277.765957,235.6 C281.744681,235.6 285,232.331915 285,228.337589 L285,217.262411 C285,213.268085 288.255319,210 292.234043,210 L303.265957,210 C307.244681,210 310.5,213.268085 310.5,217.262411 L310.5,228.337589 C310.5,232.331915 313.755319,235.6 317.734043,235.6 L328.765957,235.6 Z M242.138298,313.126241 L242.138298,285.892199 C242.138298,281.897872 238.882979,278.629787 234.904255,278.629787 L207.776596,278.629787 C203.797872,278.629787 200.542553,281.897872 200.542553,285.892199 L200.542553,313.126241 C200.542553,317.120567 203.797872,320.388652 207.776596,320.388652 L234.904255,320.388652 C238.882979,320.388652 242.138298,317.120567 242.138298,313.126241 Z M223.920354,290 C227.814159,290 231,293.185841 231,297.079646 L231,302.920354 C231,306.814159 227.814159,310 223.920354,310 L218.079646,310 C214.185841,310 211,306.814159 211,302.920354 L211,297.079646 C211,293.185841 214.185841,290 218.079646,290 L223.920354,290 Z M328.907801,185 C332.808511,185 336,188.191489 336,192.092199 L336,202.907801 C336,206.808511 332.808511,210 328.907801,210 L318.092199,210 C314.191489,210 311,206.808511 311,202.907801 L311,192.092199 C311,188.191489 314.191489,185 318.092199,185 L328.907801,185 Z M267.092199,210 C263.191489,210 260,206.808511 260,202.907801 L260,192.092199 C260,188.191489 263.191489,185 267.092199,185 L277.907801,185 C281.808511,185 285,188.191489 285,192.092199 L285,202.907801 C285,206.808511 281.808511,210 277.907801,210 L267.092199,210 Z M190.234043,236 C186.255319,236 183,232.744681 183,228.765957 L183,210.5 L183,192.234043 C183,188.255319 186.255319,185 190.234043,185 L208.5,185 L226.765957,185 C230.744681,185 234,188.255319 234,192.234043 L234,203.265957 C234,207.244681 230.744681,210.5 226.765957,210.5 L215.734043,210.5 C211.755319,210.5 208.5,213.755319 208.5,217.734043 L208.5,228.765957 C208.5,232.744681 205.244681,236 201.265957,236 L190.234043,236 Z" id="Combined-Shape" fill-rule="nonzero"></path>
            <path d="M286.575607,0.930390485 C308.916018,3.64825421 327.262936,7.81179012 347.056772,14.6931897 C376.921155,25.0442026 409.505744,43.7222874 431.093758,62.8629872 C439.312251,70.2070019 454.707456,86.0515691 459.626977,92.296873 C467.84547,102.76354 475.716703,113.750648 478.379032,118.492453 C479.015676,119.648991 480.17321,121.615105 480.809854,122.771643 C481.504374,123.986007 482.546155,125.662987 483.124922,126.53039 C483.761566,127.339967 484.22458,128.149543 484.22458,128.323024 C484.22458,128.496505 485.439991,130.80958 487.002662,133.469617 C489.607114,138.037941 493.484854,145.786744 495.857799,151.164645 C496.494443,152.494663 497.536224,154.807739 498.172867,156.369065 C499.388278,159.029101 500.082799,160.706081 501.066703,163.250464 C501.8191,165.274405 502.687251,167.298346 503.323895,168.744018 C504.249922,170.999267 508.069785,182.680298 508.590676,184.935547 C508.880059,186.149912 509.40095,188.173853 509.690333,189.446044 C511.484511,196.674405 511.426635,196.327444 513.220813,204.307554 C514.899237,212.056357 516.693415,224.200004 517.793073,235.41842 C519.297867,250.337757 519.587251,273.005897 519.703004,367.552858 C519.818758,466.725971 519.587251,481.645308 517.85095,488.700188 C517.561566,489.972379 517.040676,491.996321 516.751292,493.152858 C515.941018,496.27551 512.236909,503.446044 510.153347,505.990427 C507.375265,509.402214 500.256429,515.184902 496.55232,517.151017 C493.3691,518.827996 488.507456,520.562803 483.356429,521.892821 C476.12184,523.685455 469.176635,523.801109 348.387936,523.685455 C281.656087,523.685455 226.904717,523.511974 226.67321,523.396321 C226.441703,523.280667 222.79547,522.875879 218.512593,522.528917 C207.805402,521.719341 201.49684,521.025418 197.6191,520.273669 C189.400607,518.712343 188.069443,518.481035 185.870128,517.960593 C184.59684,517.671459 182.629032,517.151017 181.529374,516.861882 C180.429717,516.514921 177.478004,515.705344 174.989306,515.069249 C170.127662,513.73923 165.671155,512.351385 163.876977,511.541809 C162.256429,510.847886 156.758141,508.881772 154.037936,507.956541 C151.433484,507.089138 130.482114,496.738125 123.189648,492.74807 C114.045128,487.659304 101.022867,478.407002 89.1581414,468.576431 C82.0971825,462.735915 68.2067716,448.741809 61.4351962,440.703871 C54.6057442,432.55028 44.4773195,419.018788 42.162251,414.913079 C41.5256072,413.756541 39.8471825,410.923024 38.4002647,408.552122 C33.8280044,400.918972 26.4197853,386.867039 24.451977,382.00958 C23.8732099,380.563908 23.0629359,378.597794 22.657799,377.672564 C21.7317716,375.590796 18.027662,366.107186 16.5228674,361.885823 C13.802662,354.483982 13.2238948,352.633521 12.5293743,350.204792 C12.1242373,348.75912 11.3718401,346.15691 10.7930729,344.422103 C9.2304017,339.506818 8.18862087,335.343282 7.03108663,329.676247 C6.85745649,328.69319 6.39444279,326.784902 6.10505923,325.33923 C4.25300444,316.954332 2.28519622,304.637204 1.53279896,297.004055 C0.0858811482,282.084718 -0.37713255,263.29098 0.317387998,249.065565 C0.664648271,241.258936 1.24341539,232.874037 1.53279896,230.503135 C2.86396334,218.995584 3.32697704,215.525971 3.84786745,212.576799 C4.13725101,210.841993 4.65814142,207.834995 5.0054017,205.926707 C6.33656608,197.830943 8.07286745,191.00737 11.4297168,179.904608 C14.0341688,171.404055 17.1016346,162.498715 18.6643058,158.913448 C19.1273195,157.93039 19.8797168,156.07993 20.4006072,154.865565 C21.7317716,151.742914 29.5451277,136.014 31.9759496,131.619157 C33.1334839,129.537389 34.8119085,126.53039 35.6800592,124.853411 C39.3262921,118.261146 48.9338264,104.556173 57.2101962,94.2629872 C65.3708127,84.0276281 84.5280044,65.0604089 95.5824565,56.2128951 C123.421155,33.9495433 154.211566,18.3362837 189.053347,8.73702032 C195.651292,6.9443868 212.609169,3.41694665 218.281087,2.60737023 C220.538278,2.31823579 224.416018,1.7977938 226.962593,1.45083247 C229.509169,1.10387115 234.486566,0.641256047 237.959169,0.352121609 C246.756429,-0.341801043 279.514648,0.0629871705 286.575607,0.930390485 Z M244.904374,85.7046078 C235.354717,86.7454918 228.467388,87.7863758 224.358141,88.8272597 C223.258484,89.1163942 220.017388,89.9259706 217.123552,90.6198932 C211.567388,91.8920848 202.828004,94.6677754 199.471155,96.1712745 C198.371498,96.6338896 196.519443,97.443466 195.419785,97.963908 C185.580744,102.185271 176.551977,107.042729 169.954032,111.553227 C153.517046,122.82947 141.420813,134.105713 129.093073,149.545492 C105.363621,179.268512 93.672525,213.155068 92.5728674,255.079562 C91.8204702,285.091716 95.3509496,308.106818 104.263963,331.121919 C107.562936,339.622472 115.549922,355.120077 120.237936,362.117131 C136.269785,386.115289 152.185881,401.844203 173.137251,414.33481 C186.854032,422.546228 204.043415,429.369801 220.480402,433.244203 C236.338621,436.945123 254.511909,438.332969 273.032456,437.234258 C304.922525,435.268144 337.391361,423.06667 359.384511,404.735547 C382.361566,385.594847 393.705402,372.236836 404.933484,351.072195 C406.264648,348.527812 407.711566,345.925602 408.058826,345.289507 C408.463963,344.653411 409.621498,341.935547 410.721155,339.217683 C411.762936,336.49982 412.862593,334.013263 413.0941,333.724129 C413.788621,332.741072 420.386566,312.501661 421.138963,308.858567 C421.5441,306.95028 422.064991,304.579378 422.296498,303.654147 C423.454032,299.085823 424.032799,295.500556 425.7691,280.870354 C426.521498,274.740704 426.521498,247.330759 425.826977,243.167223 C425.479717,241.432416 424.958826,237.442361 424.611566,234.261882 C424.206429,231.081403 423.685539,227.553963 423.454032,226.455252 C423.164648,225.356541 422.643758,222.869985 422.238621,220.961698 C421.833484,219.053411 420.965333,215.121182 420.212936,212.287665 C419.055402,207.54586 418.534511,205.753227 416.393073,198.409212 C416.045813,197.13702 415.524922,195.807002 415.351292,195.517867 C415.119785,195.170906 413.846498,192.048254 412.457456,188.578641 C411.068415,185.051201 409.447867,181.408107 408.926977,180.42505 C408.34821,179.384166 406.554032,176.030206 404.875607,172.907554 C403.197183,169.727076 400.650607,165.332232 399.261566,163.13481 C397.814648,160.879562 396.02047,158.046044 395.210196,156.773853 C389.191018,147.116762 376.110881,132.255252 367.313621,125.084718 C364.940676,123.118604 362.857114,121.383797 362.683484,121.15249 C362.162593,120.516394 353.77047,114.502398 349.140333,111.437573 C340.863963,106.001845 328.941361,99.9300222 319.565333,96.402582 C317.655402,95.6508325 315.57184,94.841256 314.935196,94.6099485 C314.298552,94.3208141 312.851635,93.858199 311.751977,93.5112376 C310.65232,93.1642763 308.568758,92.5281805 307.12184,92.0655654 C305.674922,91.6029503 302.72321,90.8512008 300.466018,90.3307588 C298.266703,89.8103168 295.488621,89.1163942 294.388963,88.8272597 C293.289306,88.5381253 290.916361,88.0755102 289.180059,87.7285489 C287.443758,87.4394144 284.549922,86.9189724 282.813621,86.5720111 C278.704374,85.8202616 262.441018,84.7793776 256.479717,84.8372045 C253.933141,84.8950314 248.724237,85.2998196 244.904374,85.7046078 Z"></path>
        </g>
    </g>
</svg>