<?xml version="1.0" encoding="UTF-8"?>
<svg width="1328px" height="577px" viewBox="0 0 1328 577" version="1.1" xmlns="http://www.w3.org/2000/svg" xmlns:xlink="http://www.w3.org/1999/xlink">
    <!-- Generator: Sketch 55 (78076) - https://sketchapp.com -->
    <title>Logo</title>
    <desc>Created with Sketch.</desc>
    <defs>
        <path d="M137.432802,435.50332 C148.232802,431.40332 155.332802,421.70332 155.332802,411.10332 C155.332802,403.40332 152.332802,397.10332 146.332802,391.80332 C140.832802,387.00332 138.032802,386.30332 115.332802,384.00332 C107.732802,383.20332 102.132802,381.40332 93.8328024,377.00332 C80.2328024,369.80332 72.0328024,361.50332 66.0328024,348.80332 C60.3328024,336.50332 58.8328024,329.30332 58.1328024,309.90332 L57.6328024,295.60332 L84.3328024,295.60332 C121.832802,295.60332 129.632802,294.10332 135.832802,285.40332 C144.032802,274.10332 141.732802,258.70332 130.632802,251.00332 C124.932802,247.00332 119.932802,246.40332 87.1328024,245.90332 L57.8328024,245.50332 L57.8328024,134.90332 C57.8328024,54.9033196 57.5328024,23.3033196 56.7328024,20.7033196 C54.6328024,14.2033196 53.3328024,12.1033196 48.6328024,7.5033196 C41.0328024,0.00331959691 34.4328024,-1.3966804 19.3328024,1.2033196 C11.7328024,2.5033196 3.53280239,10.2033196 1.33280239,18.1033196 C-0.0671976137,22.9033196 -0.567197614,313.20332 0.832802386,324.60332 C2.33280239,337.70332 4.93280239,348.60332 8.73280239,359.10332 C11.2328024,365.70332 19.4328024,381.20332 24.2328024,388.30332 C26.6328024,391.70332 38.4328024,404.30332 43.5328024,408.70332 C51.9328024,416.10332 70.7328024,426.70332 80.8328024,429.90332 C98.5328024,435.50332 108.532802,437.30332 122.032802,437.50332 C129.732802,437.60332 132.932802,437.20332 137.432802,435.50332 Z" id="path-1"></path>
        <path d="M229.815838,436.798785 C239.915838,434.598785 247.415838,428.398785 250.715838,419.398785 C252.815838,413.798785 252.815838,413.098785 252.815838,255.598785 C252.815838,120.298785 253.015838,96.3987853 254.315838,90.3987853 C257.715838,73.8987853 260.615838,67.7987853 267.715838,61.6987853 C271.315838,58.6987853 272.815838,58.0987853 280.615838,57.0987853 C285.515838,56.3987853 291.515838,55.8987853 293.915838,55.8987853 C299.215838,55.8987853 308.215838,52.7987853 311.315838,49.8987853 C315.215838,46.1987853 319.015838,37.3987853 319.515838,30.6987853 C321.015838,11.4987853 302.015838,-1.80121465 276.215838,0.198785347 C253.215838,1.99878535 236.715838,9.49878535 222.715838,24.6987853 C211.815838,36.4987853 203.715838,53.3987853 198.515838,75.3987853 C196.415838,84.3987853 196.415838,84.9987853 196.115838,247.398785 C195.815838,362.398785 196.115838,411.898785 196.815838,415.598785 C198.015838,421.298785 202.815838,429.098785 206.815838,432.098785 C210.215838,434.598785 218.715838,437.698785 222.315838,437.798785 C224.015838,437.798785 227.315838,437.398785 229.815838,436.798785 Z" id="path-3"></path>
    </defs>
    <g id="Page-1" stroke="none" stroke-width="1" fill="none" fill-rule="evenodd">
        <g id="Logo">
            <mask id="mask-2" fill="white">
                <use xlink:href="#path-1"></use>
            </mask>
            <use id="Path" fill="#DD4B4B" transform="translate(77.666401, 218.758801) scale(1, -1) translate(-77.666401, -218.758801) " xlink:href="#path-1"></use>
            <mask id="mask-4" fill="white">
                <use xlink:href="#path-3"></use>
            </mask>
            <use id="Path" fill="#DD4B4B" transform="translate(257.799419, 218.899393) scale(1, -1) translate(-257.799419, -218.899393) " xlink:href="#path-3"></use>
            <path d="M730.001338,440.345558 C735.801338,438.345558 741.901338,433.245558 744.601338,428.345558 C745.701338,426.145558 747.101338,423.545558 747.701338,422.445558 C748.801338,420.545558 753.101338,411.445558 760.001338,396.445558 C761.801338,392.645558 764.901338,385.845558 767.001338,381.445558 C769.101338,377.045558 772.201338,370.345558 774.001338,366.445558 C775.801338,362.645558 778.901338,355.845558 781.001338,351.445558 C783.101338,347.045558 786.001338,340.745558 787.501338,337.445558 C789.001338,334.145558 791.901338,327.845558 794.001338,323.445558 C796.101338,319.045558 799.201338,312.345558 801.001338,308.445558 C802.801338,304.645558 805.901338,297.845558 808.001338,293.445558 C810.101338,289.045558 813.101338,282.545558 814.801338,278.945558 C816.401338,275.345558 819.401338,268.845558 821.501338,264.445558 C823.501338,260.045558 826.601338,253.545558 828.201338,249.945558 C829.901338,246.345558 833.201338,239.245558 835.701338,234.145558 C838.101338,229.045558 840.501338,223.745558 841.001338,222.445558 C842.201338,219.145558 843.801338,219.245558 845.101338,222.745558 C845.701338,224.245558 847.201338,227.845558 848.601338,230.745558 C849.901338,233.545558 852.101338,238.445558 853.501338,241.445558 C854.901338,244.445558 857.101338,249.445558 858.501338,252.445558 C865.001338,266.845558 866.501338,269.945558 869.501338,276.445558 C871.301338,280.345558 873.501338,285.245558 874.501338,287.445558 C875.401338,289.645558 877.701338,294.645558 879.501338,298.445558 C882.601338,305.045558 884.801338,309.845558 890.501338,322.445558 C896.201338,334.945558 897.901338,338.745558 900.801338,344.945558 C902.401338,348.545558 904.801338,353.745558 906.001338,356.445558 C907.201338,359.245558 909.501338,364.145558 911.001338,367.445558 C912.501338,370.745558 915.001338,376.145558 916.501338,379.445558 C918.001338,382.745558 920.501338,388.345558 922.201338,391.945558 C923.901338,395.545558 926.401338,400.945558 927.701338,403.945558 C941.101338,433.245558 944.301338,437.245558 957.601338,440.845558 C964.001338,442.545558 968.101338,442.045558 976.001338,438.545558 C979.701338,436.945558 989.001338,427.245558 989.001338,424.945558 C989.001338,423.945558 989.501338,422.745558 990.001338,422.445558 C991.501338,421.545558 991.201338,414.045558 989.401338,408.945558 C988.601338,406.445558 986.101338,400.745558 983.901338,396.245558 C981.801338,391.645558 978.101338,384.045558 975.901338,379.245558 C973.601338,374.345558 969.601338,365.945558 967.001338,360.445558 C964.401338,354.945558 960.501338,346.845558 958.501338,342.445558 C956.501338,338.045558 952.701338,329.945558 950.001338,324.445558 C947.401338,318.945558 943.401338,310.645558 941.201338,305.945558 C939.001338,301.245558 935.101338,292.945558 932.501338,287.445558 C929.901338,281.945558 926.001338,273.645558 923.801338,268.945558 C921.601338,264.245558 917.601338,255.945558 915.001338,250.445558 C912.401338,244.945558 908.501338,236.845558 906.501338,232.445558 C904.501338,228.045558 900.501338,219.745558 897.801338,213.945558 C895.001338,208.145558 891.201338,200.045558 889.301338,195.945558 C887.301338,191.845558 881.201338,179.345558 875.701338,168.145558 C867.001338,150.445558 865.101338,147.245558 860.501338,143.145558 C857.601338,140.545558 853.501338,137.845558 851.201338,137.245558 C846.201338,135.745558 835.401338,135.545558 834.501338,136.945558 C834.201338,137.545558 833.201338,137.945558 832.301338,137.945558 C827.601338,137.945558 818.101338,150.145558 811.301338,164.845558 C809.401338,169.045558 805.701338,176.745558 803.301338,181.945558 C800.801338,187.145558 797.001338,195.245558 794.801338,199.945558 C792.601338,204.645558 788.201338,213.845558 785.001338,220.445558 C781.801338,227.045558 777.501338,236.045558 775.501338,240.445558 C773.401338,244.845558 769.301338,253.645558 766.301338,259.945558 C763.201338,266.245558 759.001338,275.245558 756.801338,279.945558 C754.601338,284.645558 750.201338,293.845558 747.001338,300.445558 C743.801338,307.045558 739.501338,316.045558 737.501338,320.445558 C735.401338,324.845558 731.401338,333.445558 728.501338,339.445558 C725.601338,345.545558 721.201338,354.845558 718.601338,360.245558 C716.101338,365.545558 712.001338,374.145558 709.601338,379.245558 C703.901338,391.345558 699.001338,401.945558 698.001338,404.445558 C697.601338,405.545558 696.701338,407.745558 696.101338,409.245558 C694.701338,412.745558 694.601338,420.645558 696.001338,421.445558 C696.601338,421.745558 697.001338,423.045558 697.001338,424.345558 C697.001338,427.045558 705.901338,436.345558 710.401338,438.345558 C719.701338,442.245558 723.301338,442.645558 730.001338,440.345558 Z" id="Path" fill="#DC544D" transform="translate(842.980878, 288.894459) scale(1, -1) translate(-842.980878, -288.894459) "></path>
            <path d="M730.001338,444.345558 C735.801338,442.345558 741.901338,437.245558 744.601338,432.345558 C745.701338,430.145558 747.101338,427.545558 747.701338,426.445558 C748.801338,424.545558 753.101338,415.445558 760.001338,400.445558 C761.801338,396.645558 764.901338,389.845558 767.001338,385.445558 C769.101338,381.045558 772.201338,374.345558 774.001338,370.445558 C775.801338,366.645558 778.901338,359.845558 781.001338,355.445558 C783.101338,351.045558 786.001338,344.745558 787.501338,341.445558 C789.001338,338.145558 791.901338,331.845558 794.001338,327.445558 C796.101338,323.045558 799.201338,316.345558 801.001338,312.445558 C802.801338,308.645558 805.901338,301.845558 808.001338,297.445558 C810.101338,293.045558 813.101338,286.545558 814.801338,282.945558 C816.401338,279.345558 819.401338,272.845558 821.501338,268.445558 C823.501338,264.045558 826.601338,257.545558 828.201338,253.945558 C829.901338,250.345558 833.201338,243.245558 835.701338,238.145558 C838.101338,233.045558 840.501338,227.745558 841.001338,226.445558 C842.201338,223.145558 843.801338,223.245558 845.101338,226.745558 C845.701338,228.245558 847.201338,231.845558 848.601338,234.745558 C849.901338,237.545558 852.101338,242.445558 853.501338,245.445558 C854.901338,248.445558 857.101338,253.445558 858.501338,256.445558 C865.001338,270.845558 866.501338,273.945558 869.501338,280.445558 C871.301338,284.345558 873.501338,289.245558 874.501338,291.445558 C875.401338,293.645558 877.701338,298.645558 879.501338,302.445558 C882.601338,309.045558 884.801338,313.845558 890.501338,326.445558 C896.201338,338.945558 897.901338,342.745558 900.801338,348.945558 C902.401338,352.545558 904.801338,357.745558 906.001338,360.445558 C907.201338,363.245558 909.501338,368.145558 911.001338,371.445558 C912.501338,374.745558 915.001338,380.145558 916.501338,383.445558 C918.001338,386.745558 920.501338,392.345558 922.201338,395.945558 C923.901338,399.545558 926.401338,404.945558 927.701338,407.945558 C941.101338,437.245558 944.301338,441.245558 957.601338,444.845558 C964.001338,446.545558 968.101338,446.045558 976.001338,442.545558 C979.701338,440.945558 989.001338,431.245558 989.001338,428.945558 C989.001338,427.945558 989.501338,426.745558 990.001338,426.445558 C991.501338,425.545558 991.201338,418.045558 989.401338,412.945558 C988.601338,410.445558 986.101338,404.745558 983.901338,400.245558 C981.801338,395.645558 978.101338,388.045558 975.901338,383.245558 C973.601338,378.345558 969.601338,369.945558 967.001338,364.445558 C964.401338,358.945558 960.501338,350.845558 958.501338,346.445558 C956.501338,342.045558 952.701338,333.945558 950.001338,328.445558 C947.401338,322.945558 943.401338,314.645558 941.201338,309.945558 C939.001338,305.245558 935.101338,296.945558 932.501338,291.445558 C929.901338,285.945558 926.001338,277.645558 923.801338,272.945558 C921.601338,268.245558 917.601338,259.945558 915.001338,254.445558 C912.401338,248.945558 908.501338,240.845558 906.501338,236.445558 C904.501338,232.045558 900.501338,223.745558 897.801338,217.945558 C895.001338,212.145558 891.201338,204.045558 889.301338,199.945558 C887.301338,195.845558 881.201338,183.345558 875.701338,172.145558 C867.001338,154.445558 865.101338,151.245558 860.501338,147.145558 C857.601338,144.545558 853.501338,141.845558 851.201338,141.245558 C846.201338,139.745558 835.401338,139.545558 834.501338,140.945558 C834.201338,141.545558 833.201338,141.945558 832.301338,141.945558 C827.601338,141.945558 818.101338,154.145558 811.301338,168.845558 C809.401338,173.045558 805.701338,180.745558 803.301338,185.945558 C800.801338,191.145558 797.001338,199.245558 794.801338,203.945558 C792.601338,208.645558 788.201338,217.845558 785.001338,224.445558 C781.801338,231.045558 777.501338,240.045558 775.501338,244.445558 C773.401338,248.845558 769.301338,257.645558 766.301338,263.945558 C763.201338,270.245558 759.001338,279.245558 756.801338,283.945558 C754.601338,288.645558 750.201338,297.845558 747.001338,304.445558 C743.801338,311.045558 739.501338,320.045558 737.501338,324.445558 C735.401338,328.845558 731.401338,337.445558 728.501338,343.445558 C725.601338,349.545558 721.201338,358.845558 718.601338,364.245558 C716.101338,369.545558 712.001338,378.145558 709.601338,383.245558 C703.901338,395.345558 699.001338,405.945558 698.001338,408.445558 C697.601338,409.545558 696.701338,411.745558 696.101338,413.245558 C694.701338,416.745558 694.601338,424.645558 696.001338,425.445558 C696.601338,425.745558 697.001338,427.045558 697.001338,428.345558 C697.001338,431.045558 705.901338,440.345558 710.401338,442.345558 C719.701338,446.245558 723.301338,446.645558 730.001338,444.345558 Z" id="Path-Copy" fill="#DD4B4B" transform="translate(842.980878, 292.894459) scale(1, -1) translate(-842.980878, -292.894459) "></path>
            <path d="M1071.5,573.483547 C1074.1,571.983547 1077.1,568.783547 1080.1,564.383547 C1082.7,560.583547 1107.1,512.983547 1134.5,458.483547 C1161.9,404.083547 1184.4,359.283547 1184.6,359.083547 C1184.9,358.683547 1193,375.383547 1193,376.383547 C1193,376.683547 1194.3,379.683547 1195.9,383.183547 C1197.5,386.683547 1199.5,391.083547 1200.3,392.983547 C1201.9,396.683547 1204.4,402.383547 1211.8,418.983547 C1212.9,421.483547 1214.7,425.483547 1215.8,427.983547 C1216.9,430.483547 1218.7,434.583547 1219.9,437.283547 C1221,439.883547 1223,444.083547 1224.1,446.783547 C1225.3,449.383547 1227.3,453.883547 1228.6,456.783547 C1229.9,459.683547 1231,462.183547 1231,462.383547 C1231,462.583547 1232.8,466.683547 1235,471.383547 C1237.2,476.083547 1239,480.183547 1239,480.483547 C1239,480.883547 1240.3,483.883547 1241.9,487.283547 C1243.5,490.683547 1245.4,495.083547 1246.3,496.983547 C1247.8,500.483547 1250.2,505.883547 1254.1,514.783547 C1255.3,517.383547 1257.1,521.383547 1258.1,523.783547 C1260.1,528.083547 1262.4,533.483547 1266.1,541.783547 C1267.3,544.383547 1269.3,548.983547 1270.7,551.983547 C1275.6,563.083547 1277.6,566.283547 1282.8,571.083547 C1287.5,575.383547 1288.7,575.983547 1292.8,576.083547 C1301.9,576.383547 1305.6,575.783547 1311.5,572.883547 C1318.6,569.483547 1322,566.683547 1324.9,561.983547 C1327.7,557.383547 1327.8,546.583547 1325.1,539.483547 C1322.1,531.283547 1159.2,165.283547 1154.3,155.483547 C1148.6,144.283547 1144.8,139.383547 1140.3,137.483547 C1131.5,133.783547 1115.8,137.283547 1107.7,144.883547 C1099,152.883547 1098.8,164.483547 1107.2,182.983547 C1108.3,185.483547 1110.9,191.283547 1113,195.983547 C1115.1,200.683547 1117.9,207.083547 1119.4,210.283547 C1120.8,213.383547 1123.2,218.583547 1124.6,221.783547 C1126.1,224.883547 1128.9,231.283547 1131,235.983547 C1133.1,240.683547 1135.9,246.983547 1137.3,249.983547 C1138.6,252.983547 1140.7,257.583547 1141.9,260.283547 C1143,262.883547 1145,267.083547 1146.1,269.783547 C1147.3,272.383547 1149.2,276.783547 1150.5,279.483547 C1151.7,282.283547 1153.7,286.783547 1155,289.483547 C1156.2,292.283547 1157.6,295.283547 1158.1,296.183547 C1159.5,298.983547 1159.2,301.583547 1156.6,306.183547 C1155.3,308.583547 1151.6,315.683547 1148.3,321.983547 C1145,328.283547 1140.2,337.283547 1137.8,341.983547 C1135.3,346.683547 1130.7,355.283547 1127.7,361.083547 C1124.7,366.983547 1120.6,374.583547 1118.7,378.083547 C1116.8,381.583547 1112.2,390.383547 1108.5,397.483547 C1104.8,404.683547 1100.5,412.783547 1099,415.483547 C1097.5,418.283547 1092.8,427.283547 1088.5,435.483547 C1084.2,443.783547 1080.4,450.983547 1080,451.483547 C1079.6,452.083547 1075.1,460.583547 1070,470.483547 C1064.9,480.383547 1060.4,488.983547 1060,489.483547 C1059.6,490.083547 1055.6,497.683547 1051,506.483547 C1046.5,515.283547 1041.2,525.283547 1039.3,528.683547 C1034.2,537.883547 1031,546.783547 1031,551.683547 C1031,559.683547 1039,570.983547 1046.8,574.183547 C1054.4,577.283547 1065.1,576.983547 1071.5,573.483547 Z" id="Path" fill="#DD4B4B" transform="translate(1179.032017, 356.161371) scale(1, -1) translate(-1179.032017, -356.161371) "></path>
            <path d="M521.788511,140.5289 C534.478922,142.073928 544.900839,144.440779 556.144675,148.352657 C573.109059,154.236911 591.618648,164.854867 603.881661,175.735806 C608.550154,179.910668 617.29536,188.917851 620.08988,192.468127 C624.758374,198.418127 629.229606,204.663983 630.741935,207.359563 C631.103579,208.017022 631.761113,209.134701 632.122757,209.79216 C632.517278,210.482491 633.109059,211.435806 633.437826,211.9289 C633.799469,212.389121 634.062483,212.849342 634.062483,212.947961 C634.062483,213.04658 634.752894,214.361497 635.640565,215.873652 C637.120017,218.470613 639.322757,222.875585 640.670702,225.932768 C641.032346,226.688845 641.624127,228.003762 641.985771,228.891331 C642.676182,230.403486 643.070702,231.356801 643.629606,232.80321 C644.057004,233.953762 644.550154,235.104315 644.911798,235.926138 C645.437826,237.208182 647.607689,243.848514 647.903579,245.130558 C648.067963,245.820889 648.363853,246.971442 648.528237,247.694646 C649.547415,251.803762 649.514538,251.606525 650.533716,256.142989 C651.487141,260.547961 652.506319,267.451276 653.130976,273.828624 C653.985771,282.30984 654.150154,295.196027 654.215908,348.943265 C654.281661,405.320337 654.150154,413.801552 653.163853,417.812049 C652.999469,418.535254 652.703579,419.685806 652.539196,420.343265 C652.078922,422.118403 649.974812,426.194646 648.79125,427.641055 C647.213168,429.580558 643.169333,432.867851 641.065223,433.98553 C639.257004,434.938845 636.49536,435.925033 633.569333,436.68111 C629.459743,437.700171 625.514538,437.765917 556.900839,437.700171 C518.99399,437.700171 487.89262,437.601552 487.761113,437.535806 C487.629606,437.470061 485.558374,437.23995 483.125497,437.042712 C477.043305,436.582491 473.459743,436.188016 471.257004,435.760668 C466.588511,434.873099 465.832346,434.741608 464.583031,434.445751 C463.859743,434.281387 462.741935,433.98553 462.117278,433.821166 C461.49262,433.623928 459.815908,433.163707 458.402209,432.802105 C455.640565,432.046027 453.109059,431.257077 452.08988,430.796856 C451.169333,430.402381 448.046045,429.284701 446.500839,428.758735 C445.021387,428.265641 433.120017,422.381387 428.977552,420.113154 C423.783031,417.220337 416.385771,411.960668 409.646045,406.37227 C405.635086,403.052105 397.744675,395.096856 393.8981,390.527519 C390.018648,385.892436 384.265223,378.200171 382.950154,375.866193 C382.588511,375.208735 381.635086,373.597961 380.813168,372.250171 C378.215908,367.910945 374.007689,359.922823 372.88988,357.161497 C372.561113,356.339674 372.100839,355.221994 371.870702,354.696027 C371.344675,353.512602 369.240565,348.121442 368.385771,345.721718 C366.840565,341.513983 366.511798,340.462049 366.117278,339.081387 C365.887141,338.259563 365.459743,336.780282 365.130976,335.794094 C364.243305,332.999895 363.651524,330.633044 362.99399,327.411497 C362.89536,326.852657 362.632346,325.767851 362.467963,324.946027 C361.415908,320.179453 360.2981,313.177519 359.870702,308.838293 C359.048785,300.357077 358.785771,289.673375 359.180291,281.586635 C359.377552,277.14879 359.706319,272.382215 359.870702,271.034425 C360.626867,264.492712 360.88988,262.520337 361.185771,260.843817 C361.350154,259.85763 361.646045,258.148237 361.843305,257.063431 C362.599469,252.461221 363.585771,248.582215 365.49262,242.270613 C366.972072,237.438293 368.714538,232.375862 369.602209,230.33774 C369.865223,229.7789 370.29262,228.726967 370.588511,228.036635 C371.344675,226.261497 375.783031,217.320061 377.163853,214.821718 C377.821387,213.638293 378.774812,211.9289 379.267963,210.975585 C381.339196,207.228072 386.79673,199.437188 391.4981,193.585806 C396.133716,187.767298 407.015908,176.984978 413.29536,171.95542 C429.109059,159.299342 446.599469,150.423652 466.39125,144.966746 C470.139196,143.947685 479.772072,141.942436 482.99399,141.482215 C484.276182,141.317851 486.478922,141.021994 487.925497,140.824757 C489.372072,140.627519 492.199469,140.364536 494.172072,140.200171 C499.169333,139.805696 517.777552,140.035806 521.788511,140.5289 Z M498.117278,188.720613 C492.69262,189.312326 488.780291,189.904038 486.446045,190.495751 C485.821387,190.660116 483.980291,191.120337 482.336456,191.514812 C479.180291,192.238016 474.215908,193.815917 472.309059,194.670613 C471.684401,194.933596 470.632346,195.393817 470.007689,195.689674 C464.418648,198.089398 459.28988,200.850724 455.541935,203.414812 C446.204949,209.825033 439.333716,216.235254 432.330976,225.012326 C418.851524,241.909011 412.210428,261.172547 411.585771,285.00542 C411.158374,302.066469 413.163853,315.149895 418.226867,328.23332 C420.100839,333.065641 424.637826,341.875585 427.300839,345.85321 C436.407689,359.495475 445.448785,368.436911 457.350154,375.537464 C465.141935,380.20542 474.906319,384.084425 484.243305,386.286911 C493.251524,388.390779 503.574812,389.179729 514.09536,388.555143 C532.210428,387.437464 550.654264,380.501276 563.147415,370.080558 C576.199469,359.199619 582.643305,351.605972 589.021387,339.57448 C589.777552,338.128072 590.599469,336.64879 590.79673,336.287188 C591.026867,335.925585 591.684401,334.380558 592.309059,332.83553 C592.900839,331.290503 593.525497,329.876967 593.657004,329.712602 C594.051524,329.153762 597.799469,317.648237 598.226867,315.577243 C598.457004,314.492436 598.752894,313.144646 598.884401,312.618679 C599.541935,310.021718 599.870702,307.983596 600.857004,299.666746 C601.284401,296.182215 601.284401,280.600447 600.88988,278.233596 C600.69262,277.247409 600.39673,274.979177 600.199469,273.171166 C599.969333,271.363154 599.673442,269.357906 599.541935,268.73332 C599.377552,268.108735 599.081661,266.695199 598.851524,265.610392 C598.621387,264.525585 598.128237,262.290226 597.700839,260.679453 C597.043305,257.983873 596.747415,256.964812 595.530976,252.78995 C595.333716,252.066746 595.037826,251.310668 594.939196,251.146304 C594.807689,250.949066 594.084401,249.173928 593.29536,247.201552 C592.506319,245.196304 591.585771,243.125309 591.28988,242.566469 C590.961113,241.974757 589.941935,240.068127 588.988511,238.292989 C588.035086,236.484978 586.588511,233.986635 585.799469,232.737464 C584.977552,231.45542 583.958374,229.844646 583.4981,229.121442 C580.078922,223.631663 572.648785,215.18332 567.651524,211.107077 C566.303579,209.989398 565.120017,209.00321 565.021387,208.871718 C564.725497,208.510116 559.958374,205.091331 557.328237,203.349066 C552.626867,200.259011 545.854264,196.807353 540.528237,194.802105 C539.443305,194.374757 538.259743,193.914536 537.8981,193.783044 C537.536456,193.618679 536.714538,193.355696 536.08988,193.158458 C535.465223,192.961221 534.281661,192.599619 533.459743,192.336635 C532.637826,192.073652 530.961113,191.646304 529.678922,191.350447 C528.429606,191.054591 526.851524,190.660116 526.226867,190.495751 C525.602209,190.331387 524.254264,190.068403 523.267963,189.871166 C522.281661,189.706801 520.637826,189.410945 519.651524,189.213707 C517.317278,188.786359 508.078922,188.194646 504.69262,188.227519 C503.246045,188.260392 500.287141,188.490503 498.117278,188.720613 Z" id="Flavy-Icon" fill="#DD4B4B"></path>
            <path d="M530.219329,316.139056 C532.375631,316.139056 534.139879,317.903251 534.139879,320.05949 L534.139879,326.038151 C534.139879,328.194389 532.375631,329.958584 530.219329,329.958584 L524.24049,329.958584 C522.084187,329.958584 520.319939,328.194389 520.319939,326.038151 L520.319939,320.05949 C520.319939,317.903251 522.084187,316.139056 524.24049,316.139056 L530.219329,316.139056 Z M544.039268,302.319528 C546.195571,302.319528 547.959818,304.083723 547.959818,306.239962 L547.959818,312.218623 C547.959818,314.374861 546.195571,316.139056 544.039268,316.139056 L538.060429,316.139056 C535.904126,316.139056 534.139879,314.374861 534.139879,312.218623 L534.139879,306.239962 C534.139879,304.083723 535.904126,302.319528 538.060429,302.319528 L544.039268,302.319528 Z M544.039268,274.680472 C546.195571,274.680472 547.959818,276.444667 547.959818,278.600905 L547.959818,284.579566 C547.959818,286.735805 546.195571,288.5 544.039268,288.5 L538.060429,288.5 C535.904126,288.5 534.139879,290.264195 534.139879,292.420434 L534.139879,298.399095 C534.139879,300.555333 532.375631,302.319528 530.219329,302.319528 L524.24049,302.319528 C522.084187,302.319528 520.319939,300.555333 520.319939,298.399095 L520.319939,292.420434 C520.319939,290.264195 518.555692,288.5 516.399389,288.5 L510.42055,288.5 C508.264248,288.5 506.5,290.264195 506.5,292.420434 L506.5,298.399095 C506.5,300.555333 508.264248,302.319528 510.42055,302.319528 L516.399389,302.319528 C518.555692,302.319528 520.319939,304.083723 520.319939,306.239962 L520.319939,312.218623 C520.319939,314.374861 518.555692,316.139056 516.399389,316.139056 L510.42055,316.139056 C508.264248,316.139056 506.5,317.903251 506.5,320.05949 L506.5,326.038151 C506.5,328.194389 504.735752,329.958584 502.57945,329.958584 L492.680061,329.958584 L478.860121,329.958584 L468.960732,329.958584 C466.804429,329.958584 465.040182,328.194389 465.040182,326.038151 L465.040182,316.139056 L465.040182,302.319528 L465.040182,292.420434 C465.040182,290.264195 466.804429,288.5 468.960732,288.5 L478.860121,288.5 L488.75951,288.5 C490.915813,288.5 492.680061,286.735805 492.680061,284.579566 L492.680061,274.680472 L492.680061,264.781377 C492.680061,262.625139 494.444308,260.860944 496.600611,260.860944 L502.57945,260.860944 C504.735752,260.860944 506.5,262.625139 506.5,264.781377 L506.5,270.760038 C506.5,272.916277 508.264248,274.680472 510.42055,274.680472 L516.399389,274.680472 C518.555692,274.680472 520.319939,272.916277 520.319939,270.760038 L520.319939,264.781377 C520.319939,262.625139 522.084187,260.860944 524.24049,260.860944 L530.219329,260.860944 C532.375631,260.860944 534.139879,262.625139 534.139879,264.781377 L534.139879,270.760038 C534.139879,272.916277 535.904126,274.680472 538.060429,274.680472 L544.039268,274.680472 Z M497.09068,316.5311 L497.09068,301.829474 C497.09068,299.673235 495.326432,297.90904 493.170129,297.90904 L478.468066,297.90904 C476.311764,297.90904 474.547516,299.673235 474.547516,301.829474 L474.547516,316.5311 C474.547516,318.687338 476.311764,320.451533 478.468066,320.451533 L493.170129,320.451533 C495.326432,320.451533 497.09068,318.687338 497.09068,316.5311 Z M487.387318,303.69168 C489.54362,303.69168 491.307868,305.455875 491.307868,307.612113 L491.307868,310.846471 C491.307868,313.002709 489.54362,314.766904 487.387318,314.766904 L484.152864,314.766904 C481.996561,314.766904 480.232314,313.002709 480.232314,310.846471 L480.232314,307.612113 C480.232314,305.455875 481.996561,303.69168 484.152864,303.69168 L487.387318,303.69168 Z M544.039268,247.041416 C546.195571,247.041416 547.959818,248.805611 547.959818,250.961849 L547.959818,256.94051 C547.959818,259.096749 546.195571,260.860944 544.039268,260.860944 L538.060429,260.860944 C535.904126,260.860944 534.139879,259.096749 534.139879,256.94051 L534.139879,250.961849 C534.139879,248.805611 535.904126,247.041416 538.060429,247.041416 L544.039268,247.041416 Z M510.42055,260.860944 C508.264248,260.860944 506.5,259.096749 506.5,256.94051 L506.5,250.961849 C506.5,248.805611 508.264248,247.041416 510.42055,247.041416 L516.399389,247.041416 C518.555692,247.041416 520.319939,248.805611 520.319939,250.961849 L520.319939,256.94051 C520.319939,259.096749 518.555692,260.860944 516.399389,260.860944 L510.42055,260.860944 Z M468.960732,274.680472 C466.804429,274.680472 465.040182,272.916277 465.040182,270.760038 L465.040182,260.860944 L465.040182,250.961849 C465.040182,248.805611 466.804429,247.041416 468.960732,247.041416 L478.860121,247.041416 L488.75951,247.041416 C490.915813,247.041416 492.680061,248.805611 492.680061,250.961849 L492.680061,256.94051 C492.680061,259.096749 490.915813,260.860944 488.75951,260.860944 L482.780671,260.860944 C480.624369,260.860944 478.860121,262.625139 478.860121,264.781377 L478.860121,270.760038 C478.860121,272.916277 477.095874,274.680472 474.939571,274.680472 L468.960732,274.680472 Z" id="Combined-Shape" fill="#DD4B4B" fill-rule="nonzero"></path>
        </g>
    </g>
</svg>